<mxfile host="app.diagrams.net" modified="2023-08-08T16:17:24.820Z" agent="Mozilla/5.0 (Windows NT 10.0; Win64; x64) AppleWebKit/537.36 (KHTML, like Gecko) Chrome/115.0.0.0 Safari/537.36 Edg/115.0.1901.188" etag="O09_aCYYHulQa9nw-3a-" version="21.6.7" type="device">
  <diagram id="R2lEEEUBdFMjLlhIrx00" name="Page-1">
    <mxGraphModel dx="989" dy="625" grid="1" gridSize="10" guides="1" tooltips="1" connect="1" arrows="1" fold="1" page="1" pageScale="1" pageWidth="850" pageHeight="1100" math="0" shadow="0" extFonts="Permanent Marker^https://fonts.googleapis.com/css?family=Permanent+Marker">
      <root>
        <mxCell id="0" />
        <mxCell id="1" parent="0" />
        <mxCell id="CgryGg1mfbn8uc2uhe24-1" value="Estudiantes" style="whiteSpace=wrap;html=1;align=center;" vertex="1" parent="1">
          <mxGeometry x="200" y="60" width="100" height="40" as="geometry" />
        </mxCell>
        <mxCell id="CgryGg1mfbn8uc2uhe24-9" style="edgeStyle=orthogonalEdgeStyle;rounded=0;orthogonalLoop=1;jettySize=auto;html=1;exitX=0.5;exitY=0;exitDx=0;exitDy=0;entryX=0.5;entryY=1;entryDx=0;entryDy=0;endArrow=none;endFill=0;" edge="1" parent="1" source="CgryGg1mfbn8uc2uhe24-3" target="CgryGg1mfbn8uc2uhe24-1">
          <mxGeometry relative="1" as="geometry" />
        </mxCell>
        <mxCell id="CgryGg1mfbn8uc2uhe24-3" value="Nombre" style="ellipse;whiteSpace=wrap;html=1;align=center;" vertex="1" parent="1">
          <mxGeometry x="140" y="270" width="100" height="40" as="geometry" />
        </mxCell>
        <mxCell id="CgryGg1mfbn8uc2uhe24-10" style="edgeStyle=orthogonalEdgeStyle;rounded=0;orthogonalLoop=1;jettySize=auto;html=1;entryX=0.5;entryY=1;entryDx=0;entryDy=0;endArrow=none;endFill=0;" edge="1" parent="1" source="CgryGg1mfbn8uc2uhe24-4" target="CgryGg1mfbn8uc2uhe24-1">
          <mxGeometry relative="1" as="geometry" />
        </mxCell>
        <mxCell id="CgryGg1mfbn8uc2uhe24-4" value="Apelllido" style="ellipse;whiteSpace=wrap;html=1;align=center;" vertex="1" parent="1">
          <mxGeometry x="260" y="270" width="100" height="40" as="geometry" />
        </mxCell>
        <mxCell id="CgryGg1mfbn8uc2uhe24-11" style="edgeStyle=orthogonalEdgeStyle;rounded=0;orthogonalLoop=1;jettySize=auto;html=1;entryX=0.5;entryY=1;entryDx=0;entryDy=0;exitX=0.5;exitY=0;exitDx=0;exitDy=0;endArrow=none;endFill=0;" edge="1" parent="1" source="CgryGg1mfbn8uc2uhe24-5" target="CgryGg1mfbn8uc2uhe24-1">
          <mxGeometry relative="1" as="geometry" />
        </mxCell>
        <mxCell id="CgryGg1mfbn8uc2uhe24-5" value="Semestre" style="ellipse;whiteSpace=wrap;html=1;align=center;" vertex="1" parent="1">
          <mxGeometry x="370" y="210" width="100" height="40" as="geometry" />
        </mxCell>
        <mxCell id="CgryGg1mfbn8uc2uhe24-8" style="edgeStyle=orthogonalEdgeStyle;rounded=0;orthogonalLoop=1;jettySize=auto;html=1;entryX=0.5;entryY=1;entryDx=0;entryDy=0;exitX=0.5;exitY=0;exitDx=0;exitDy=0;endArrow=none;endFill=0;" edge="1" parent="1" source="CgryGg1mfbn8uc2uhe24-7" target="CgryGg1mfbn8uc2uhe24-1">
          <mxGeometry relative="1" as="geometry" />
        </mxCell>
        <mxCell id="CgryGg1mfbn8uc2uhe24-7" value="ID" style="ellipse;whiteSpace=wrap;html=1;align=center;fontStyle=4;" vertex="1" parent="1">
          <mxGeometry x="30" y="210" width="100" height="40" as="geometry" />
        </mxCell>
        <mxCell id="CgryGg1mfbn8uc2uhe24-19" style="edgeStyle=orthogonalEdgeStyle;rounded=0;orthogonalLoop=1;jettySize=auto;html=1;entryX=0.5;entryY=1;entryDx=0;entryDy=0;exitX=0.5;exitY=0;exitDx=0;exitDy=0;endArrow=none;endFill=0;" edge="1" parent="1" source="CgryGg1mfbn8uc2uhe24-13" target="CgryGg1mfbn8uc2uhe24-3">
          <mxGeometry relative="1" as="geometry" />
        </mxCell>
        <mxCell id="CgryGg1mfbn8uc2uhe24-13" value="Primer nombre" style="ellipse;whiteSpace=wrap;html=1;align=center;" vertex="1" parent="1">
          <mxGeometry x="30" y="380" width="100" height="40" as="geometry" />
        </mxCell>
        <mxCell id="CgryGg1mfbn8uc2uhe24-18" style="edgeStyle=orthogonalEdgeStyle;rounded=0;orthogonalLoop=1;jettySize=auto;html=1;entryX=0.5;entryY=1;entryDx=0;entryDy=0;endArrow=none;endFill=0;" edge="1" parent="1" source="CgryGg1mfbn8uc2uhe24-14" target="CgryGg1mfbn8uc2uhe24-3">
          <mxGeometry relative="1" as="geometry" />
        </mxCell>
        <mxCell id="CgryGg1mfbn8uc2uhe24-14" value="Segundo Nombre" style="ellipse;whiteSpace=wrap;html=1;align=center;" vertex="1" parent="1">
          <mxGeometry x="140" y="380" width="100" height="40" as="geometry" />
        </mxCell>
        <mxCell id="CgryGg1mfbn8uc2uhe24-20" style="edgeStyle=orthogonalEdgeStyle;rounded=0;orthogonalLoop=1;jettySize=auto;html=1;entryX=0.5;entryY=1;entryDx=0;entryDy=0;endArrow=none;endFill=0;" edge="1" parent="1" source="CgryGg1mfbn8uc2uhe24-15" target="CgryGg1mfbn8uc2uhe24-4">
          <mxGeometry relative="1" as="geometry" />
        </mxCell>
        <mxCell id="CgryGg1mfbn8uc2uhe24-15" value="Primer apellido" style="ellipse;whiteSpace=wrap;html=1;align=center;" vertex="1" parent="1">
          <mxGeometry x="260" y="380" width="100" height="40" as="geometry" />
        </mxCell>
        <mxCell id="CgryGg1mfbn8uc2uhe24-21" style="edgeStyle=orthogonalEdgeStyle;rounded=0;orthogonalLoop=1;jettySize=auto;html=1;entryX=0.5;entryY=1;entryDx=0;entryDy=0;exitX=0.5;exitY=0;exitDx=0;exitDy=0;endArrow=none;endFill=0;" edge="1" parent="1" source="CgryGg1mfbn8uc2uhe24-16" target="CgryGg1mfbn8uc2uhe24-4">
          <mxGeometry relative="1" as="geometry" />
        </mxCell>
        <mxCell id="CgryGg1mfbn8uc2uhe24-16" value="Segundo apellido" style="ellipse;whiteSpace=wrap;html=1;align=center;" vertex="1" parent="1">
          <mxGeometry x="370" y="380" width="100" height="40" as="geometry" />
        </mxCell>
        <mxCell id="CgryGg1mfbn8uc2uhe24-23" style="edgeStyle=orthogonalEdgeStyle;rounded=0;orthogonalLoop=1;jettySize=auto;html=1;entryX=0.5;entryY=1;entryDx=0;entryDy=0;exitX=0.5;exitY=0;exitDx=0;exitDy=0;endArrow=none;endFill=0;" edge="1" parent="1" source="CgryGg1mfbn8uc2uhe24-22" target="CgryGg1mfbn8uc2uhe24-1">
          <mxGeometry relative="1" as="geometry" />
        </mxCell>
        <mxCell id="CgryGg1mfbn8uc2uhe24-22" value="TelÃ©fono" style="ellipse;shape=doubleEllipse;margin=3;whiteSpace=wrap;html=1;align=center;" vertex="1" parent="1">
          <mxGeometry x="500" y="210" width="100" height="40" as="geometry" />
        </mxCell>
        <mxCell id="CgryGg1mfbn8uc2uhe24-25" style="edgeStyle=orthogonalEdgeStyle;rounded=0;orthogonalLoop=1;jettySize=auto;html=1;entryX=0.5;entryY=1;entryDx=0;entryDy=0;exitX=0.5;exitY=0;exitDx=0;exitDy=0;endArrow=none;endFill=0;" edge="1" parent="1" source="CgryGg1mfbn8uc2uhe24-24" target="CgryGg1mfbn8uc2uhe24-1">
          <mxGeometry relative="1" as="geometry" />
        </mxCell>
        <mxCell id="CgryGg1mfbn8uc2uhe24-24" value="Fecha nacimiento" style="ellipse;whiteSpace=wrap;html=1;align=center;" vertex="1" parent="1">
          <mxGeometry x="620" y="210" width="100" height="40" as="geometry" />
        </mxCell>
        <mxCell id="CgryGg1mfbn8uc2uhe24-27" style="edgeStyle=orthogonalEdgeStyle;rounded=0;orthogonalLoop=1;jettySize=auto;html=1;entryX=0.5;entryY=1;entryDx=0;entryDy=0;endArrow=none;endFill=0;" edge="1" parent="1" source="CgryGg1mfbn8uc2uhe24-26" target="CgryGg1mfbn8uc2uhe24-24">
          <mxGeometry relative="1" as="geometry" />
        </mxCell>
        <mxCell id="CgryGg1mfbn8uc2uhe24-26" value="Edad" style="ellipse;whiteSpace=wrap;html=1;align=center;dashed=1;" vertex="1" parent="1">
          <mxGeometry x="620" y="320" width="100" height="40" as="geometry" />
        </mxCell>
        <mxCell id="CgryGg1mfbn8uc2uhe24-38" style="edgeStyle=orthogonalEdgeStyle;rounded=0;orthogonalLoop=1;jettySize=auto;html=1;exitX=1;exitY=0.5;exitDx=0;exitDy=0;entryX=0;entryY=0.5;entryDx=0;entryDy=0;strokeColor=#6c8ebf;endArrow=none;endFill=0;fillColor=#dae8fc;" edge="1" parent="1" source="CgryGg1mfbn8uc2uhe24-29" target="CgryGg1mfbn8uc2uhe24-37">
          <mxGeometry relative="1" as="geometry" />
        </mxCell>
        <mxCell id="CgryGg1mfbn8uc2uhe24-29" value="Profesor" style="whiteSpace=wrap;html=1;align=center;" vertex="1" parent="1">
          <mxGeometry x="60" y="490" width="100" height="40" as="geometry" />
        </mxCell>
        <mxCell id="CgryGg1mfbn8uc2uhe24-34" style="edgeStyle=orthogonalEdgeStyle;rounded=0;orthogonalLoop=1;jettySize=auto;html=1;exitX=0.5;exitY=0;exitDx=0;exitDy=0;entryX=0.5;entryY=1;entryDx=0;entryDy=0;endArrow=none;endFill=0;" edge="1" parent="1" source="CgryGg1mfbn8uc2uhe24-31" target="CgryGg1mfbn8uc2uhe24-29">
          <mxGeometry relative="1" as="geometry" />
        </mxCell>
        <mxCell id="CgryGg1mfbn8uc2uhe24-31" value="ID" style="ellipse;whiteSpace=wrap;html=1;align=center;fontStyle=4;" vertex="1" parent="1">
          <mxGeometry x="30" y="570" width="100" height="40" as="geometry" />
        </mxCell>
        <mxCell id="CgryGg1mfbn8uc2uhe24-35" style="edgeStyle=orthogonalEdgeStyle;rounded=0;orthogonalLoop=1;jettySize=auto;html=1;entryX=0.5;entryY=1;entryDx=0;entryDy=0;endArrow=none;endFill=0;" edge="1" parent="1" source="CgryGg1mfbn8uc2uhe24-32" target="CgryGg1mfbn8uc2uhe24-29">
          <mxGeometry relative="1" as="geometry" />
        </mxCell>
        <mxCell id="CgryGg1mfbn8uc2uhe24-32" value="Nombre" style="ellipse;whiteSpace=wrap;html=1;align=center;" vertex="1" parent="1">
          <mxGeometry x="160" y="570" width="100" height="40" as="geometry" />
        </mxCell>
        <mxCell id="CgryGg1mfbn8uc2uhe24-36" style="edgeStyle=orthogonalEdgeStyle;rounded=0;orthogonalLoop=1;jettySize=auto;html=1;entryX=0.5;entryY=1;entryDx=0;entryDy=0;exitX=0.5;exitY=0;exitDx=0;exitDy=0;endArrow=none;endFill=0;" edge="1" parent="1" source="CgryGg1mfbn8uc2uhe24-33" target="CgryGg1mfbn8uc2uhe24-29">
          <mxGeometry relative="1" as="geometry" />
        </mxCell>
        <mxCell id="CgryGg1mfbn8uc2uhe24-33" value="Salario" style="ellipse;whiteSpace=wrap;html=1;align=center;" vertex="1" parent="1">
          <mxGeometry x="290" y="570" width="100" height="40" as="geometry" />
        </mxCell>
        <mxCell id="CgryGg1mfbn8uc2uhe24-39" style="edgeStyle=orthogonalEdgeStyle;rounded=0;orthogonalLoop=1;jettySize=auto;html=1;entryX=1;entryY=0.5;entryDx=0;entryDy=0;exitX=1;exitY=0.5;exitDx=0;exitDy=0;endArrow=none;endFill=0;fillColor=#dae8fc;strokeColor=#6c8ebf;" edge="1" parent="1" source="CgryGg1mfbn8uc2uhe24-37" target="CgryGg1mfbn8uc2uhe24-1">
          <mxGeometry relative="1" as="geometry">
            <Array as="points">
              <mxPoint x="760" y="510" />
              <mxPoint x="760" y="80" />
            </Array>
          </mxGeometry>
        </mxCell>
        <mxCell id="CgryGg1mfbn8uc2uhe24-37" value="Asesor" style="shape=rhombus;perimeter=rhombusPerimeter;whiteSpace=wrap;html=1;align=center;fillColor=#dae8fc;strokeColor=#6c8ebf;" vertex="1" parent="1">
          <mxGeometry x="490" y="480" width="120" height="60" as="geometry" />
        </mxCell>
        <mxCell id="CgryGg1mfbn8uc2uhe24-41" style="edgeStyle=orthogonalEdgeStyle;rounded=0;orthogonalLoop=1;jettySize=auto;html=1;entryX=0.5;entryY=0;entryDx=0;entryDy=0;exitX=0;exitY=0.5;exitDx=0;exitDy=0;endArrow=none;endFill=0;" edge="1" parent="1" source="CgryGg1mfbn8uc2uhe24-40" target="CgryGg1mfbn8uc2uhe24-37">
          <mxGeometry relative="1" as="geometry" />
        </mxCell>
        <mxCell id="CgryGg1mfbn8uc2uhe24-40" value="Fecha" style="ellipse;whiteSpace=wrap;html=1;align=center;" vertex="1" parent="1">
          <mxGeometry x="600" y="420" width="100" height="40" as="geometry" />
        </mxCell>
        <mxCell id="CgryGg1mfbn8uc2uhe24-42" value="RelaciÃ³n: ASESOR&lt;br&gt;Cardinalidad: Muchos a Muchos&lt;br&gt;Con un atributo: Fecha&lt;br&gt;* .. *: Muchos a Muchos" style="whiteSpace=wrap;html=1;fillColor=#dae8fc;strokeColor=#6c8ebf;" vertex="1" parent="1">
          <mxGeometry x="510" y="590" width="220" height="80" as="geometry" />
        </mxCell>
        <mxCell id="CgryGg1mfbn8uc2uhe24-43" value="* .. *" style="text;html=1;align=center;verticalAlign=middle;resizable=0;points=[];autosize=1;strokeColor=none;fillColor=none;" vertex="1" parent="1">
          <mxGeometry x="440" y="480" width="50" height="30" as="geometry" />
        </mxCell>
        <mxCell id="CgryGg1mfbn8uc2uhe24-44" value="* .. *" style="text;html=1;align=center;verticalAlign=middle;resizable=0;points=[];autosize=1;strokeColor=none;fillColor=none;" vertex="1" parent="1">
          <mxGeometry x="620" y="480" width="50" height="30" as="geometry" />
        </mxCell>
      </root>
    </mxGraphModel>
  </diagram>
</mxfile>
